# xmcd
#
# Track frame offsets:
#	150
#	13457
#	28457
#	43497
#	61480
#	73262
#	89192
#	100453
#	115301
#	126864
#	165729
#	178967
#	191904
#	200953
#
# Disc length: 2813 seconds
#
# Revision: 0
# Processed by: cddbd v1.5.2PL0 Copyright (c) Steve Scherf et al.
# Submitted via: EZCDAudioConverter 1.2.3.1
#
DISCID=f30afb0e
DTITLE=Varios - Blues
DYEAR=2007
DGENRE=Blues
TTITLE0=Elmore James - Dust my broom
TTITLE1=Taj Mahhal - Stagger Lee
TTITLE2=John Lee Hooker - Sally Mae
TTITLE3=Mississipi John Hurt - Monday morning blues
TTITLE4=Etta James - I'd rather go blind
TTITLE5=Muddy Waters - Iodine in my coffee
TTITLE6=Jimmi Reed - Hush Hush
TTITLE7=Big Joe Turner - How long, how long blues
TTITLE8=Lightnin' Hopkins - Mojo Hand
TTITLE9=BB King - Why I sing the blues
TTITLE10=Howling Wolf - I ain't supperstitious
TTITLE11=Big Bill Broonzy - Long tall mama
TTITLE12=Big Joe Williams - Baby please don't go
TTITLE13=Junior Wells and Buddy Guy - Messin' with the kid
EXTD=
EXTT0=
EXTT1=
EXTT2=
EXTT3=
EXTT4=
EXTT5=
EXTT6=
EXTT7=
EXTT8=
EXTT9=
EXTT10=
EXTT11=
EXTT12=
EXTT13=
PLAYORDER=
